ffmpeg started on 2016-11-25 at 14:07:26
Report written to "Output/NVENCh264/results/ffmpeg/Told_town_cross_2160p50bd500k.log"
Command line:
Tools/ffmpeg/ffmpeg -i Output/NVENCh264/encoded/old_town_cross_2160p50bd500k.mkv -c:v rawvideo -pix_fmt yuv420p Output/NVENCh264/transcoded/old_town_cross_2160p50bd500k.yuv
ffmpeg version N-82227-gdb23fde Copyright (c) 2000-2016 the FFmpeg developers
  built with gcc 5.4.0 (Ubuntu 5.4.0-6ubuntu1~16.04.2) 20160609
  configuration: --prefix=/home/jaroslav/ffmpeg_build --pkg-config-flags=--static --extra-cflags=-I/home/jaroslav/ffmpeg_build/include --extra-ldflags=-L/home/jaroslav/ffmpeg_build/lib --bindir=/home/jaroslav/bin --enable-gpl --enable-libass --enable-libfdk-aac --enable-libfreetype --enable-libmp3lame --enable-libopus --enable-libtheora --enable-libvorbis --enable-libvpx --enable-libx264 --enable-libx265 --enable-nvenc --enable-libmfx --enable-libxvid --enable-libgsm --enable-libopencore-amrnb --enable-version3 --enable-nonfree
  libavutil      55. 35.100 / 55. 35.100
  libavcodec     57. 66.101 / 57. 66.101
  libavformat    57. 57.100 / 57. 57.100
  libavdevice    57.  2.100 / 57.  2.100
  libavfilter     6. 66.100 /  6. 66.100
  libswscale      4.  3.100 /  4.  3.100
  libswresample   2.  4.100 /  2.  4.100
  libpostproc    54.  2.100 / 54.  2.100
Input #0, matroska,webm, from 'Output/NVENCh264/encoded/old_town_cross_2160p50bd500k.mkv':
  Metadata:
    ENCODER         : Lavf57.57.100
  Duration: 00:00:10.00, start: 0.000000, bitrate: 2158 kb/s
    Stream #0:0: Video: h264 (Main), yuv420p(progressive), 3840x2160 [SAR 1:1 DAR 16:9], 50 fps, 50 tbr, 1k tbn, 100 tbc (default)
    Metadata:
      ENCODER         : Lavc57.66.101 h264_nvenc
      DURATION        : 00:00:10.000000000
Output #0, rawvideo, to 'Output/NVENCh264/transcoded/old_town_cross_2160p50bd500k.yuv':
  Metadata:
    encoder         : Lavf57.57.100
    Stream #0:0: Video: rawvideo (I420 / 0x30323449), yuv420p, 3840x2160 [SAR 1:1 DAR 16:9], q=2-31, 200 kb/s, 50 fps, 50 tbn, 50 tbc (default)
    Metadata:
      DURATION        : 00:00:10.000000000
      encoder         : Lavc57.66.101 rawvideo
Stream mapping:
  Stream #0:0 -> #0:0 (h264 (native) -> rawvideo (native))
Press [q] to stop, [?] for help
frame=   17 fps=0.0 q=-0.0 size=  206550kB time=00:00:00.34 bitrate=4976640.0kbits/s speed=0.639x    frame=   34 fps= 32 q=-0.0 size=  413100kB time=00:00:00.68 bitrate=4976640.0kbits/s speed=0.645x    frame=   51 fps= 32 q=-0.0 size=  619650kB time=00:00:01.02 bitrate=4976640.0kbits/s speed=0.648x    frame=   68 fps= 33 q=-0.0 size=  826200kB time=00:00:01.36 bitrate=4976640.0kbits/s speed=0.65x    frame=   85 fps= 33 q=-0.0 size= 1032750kB time=00:00:01.70 bitrate=4976640.0kbits/s speed=0.651x    frame=  102 fps= 33 q=-0.0 size= 1239300kB time=00:00:02.04 bitrate=4976640.0kbits/s speed=0.652x    frame=  119 fps= 33 q=-0.0 size= 1445850kB time=00:00:02.38 bitrate=4976640.0kbits/s speed=0.652x    frame=  136 fps= 33 q=-0.0 size= 1652400kB time=00:00:02.72 bitrate=4976640.0kbits/s speed=0.653x    frame=  153 fps= 33 q=-0.0 size= 1858950kB time=00:00:03.06 bitrate=4976640.0kbits/s speed=0.653x    frame=  170 fps= 33 q=-0.0 size= 2065500kB time=00:00:03.40 bitrate=4976640.0kbits/s speed=0.653x    frame=  187 fps= 33 q=-0.0 size= 2272050kB time=00:00:03.74 bitrate=4976640.0kbits/s speed=0.653x    frame=  204 fps= 33 q=-0.0 size= 2478600kB time=00:00:04.08 bitrate=4976640.0kbits/s speed=0.654x    frame=  221 fps= 33 q=-0.0 size= 2685150kB time=00:00:04.42 bitrate=4976640.0kbits/s speed=0.654x    frame=  238 fps= 33 q=-0.0 size= 2891700kB time=00:00:04.76 bitrate=4976640.0kbits/s speed=0.654x    frame=  254 fps= 33 q=-0.0 size= 3086100kB time=00:00:05.08 bitrate=4976640.0kbits/s speed=0.653x    frame=  269 fps= 32 q=-0.0 size= 3268350kB time=00:00:05.38 bitrate=4976640.0kbits/s speed=0.648x    frame=  279 fps= 32 q=-0.0 size= 3389850kB time=00:00:05.58 bitrate=4976640.0kbits/s speed=0.632x    frame=  294 fps= 31 q=-0.0 size= 3572100kB time=00:00:05.88 bitrate=4976640.0kbits/s speed=0.629x    frame=  307 fps= 31 q=-0.0 size= 3730050kB time=00:00:06.14 bitrate=4976640.0kbits/s speed=0.623x    frame=  320 fps= 31 q=-0.0 size= 3888000kB time=00:00:06.40 bitrate=4976640.0kbits/s speed=0.617x    frame=  336 fps= 31 q=-0.0 size= 4082400kB time=00:00:06.72 bitrate=4976640.0kbits/s speed=0.617x    frame=  352 fps= 31 q=-0.0 size= 4276800kB time=00:00:07.04 bitrate=4976640.0kbits/s speed=0.618x    frame=  367 fps= 31 q=-0.0 size= 4459050kB time=00:00:07.34 bitrate=4976640.0kbits/s speed=0.616x    frame=  383 fps= 31 q=-0.0 size= 4653450kB time=00:00:07.66 bitrate=4976640.0kbits/s speed=0.617x    frame=  395 fps= 30 q=-0.0 size= 4799250kB time=00:00:07.90 bitrate=4976640.0kbits/s speed=0.61x    frame=  408 fps= 30 q=-0.0 size= 4957200kB time=00:00:08.16 bitrate=4976640.0kbits/s speed=0.606x    frame=  419 fps= 30 q=-0.0 size= 5090850kB time=00:00:08.38 bitrate=4976640.0kbits/s speed= 0.6x    frame=  435 fps= 30 q=-0.0 size= 5285250kB time=00:00:08.70 bitrate=4976640.0kbits/s speed= 0.6x    frame=  451 fps= 30 q=-0.0 size= 5479650kB time=00:00:09.02 bitrate=4976640.0kbits/s speed=0.601x    frame=  467 fps= 30 q=-0.0 size= 5674050kB time=00:00:09.34 bitrate=4976640.0kbits/s speed=0.601x    frame=  483 fps= 30 q=-0.0 size= 5868450kB time=00:00:09.66 bitrate=4976640.0kbits/s speed=0.602x    frame=  499 fps= 30 q=-0.0 size= 6062850kB time=00:00:09.98 bitrate=4976640.0kbits/s speed=0.603x    frame=  500 fps= 30 q=-0.0 Lsize= 6075000kB time=00:00:10.00 bitrate=4976640.0kbits/s speed=0.602x    
video:6075000kB audio:0kB subtitle:0kB other streams:0kB global headers:0kB muxing overhead: 0.000000%
